<svg xmlns="http://www.w3.org/2000/svg" version="1.1" xmlns:xlink="http://www.w3.org/1999/xlink" xmlns:svgjs="http://svgjs.dev/svgjs" viewBox="0 0 800 800" opacity="1"><g stroke-width="1" stroke="hsl(0, 0%, 73%)" fill="none" stroke-linecap="round"><path d="M-452.50006275176986 483.7134521875837C-413.75006167671876 426.1697005911328 -375.00006060166766 247.14469562439683 -297.50005845156556 253.53844580178026C-220.00005630146336 259.9321959791637 -220.00005630146342 499.40720262297936 -142.5000541513612 509.2884528971174C-65.00005200125901 519.1697031712554 -65.00005200125901 290.7384468338293 12.499950148843027 293.06344689833236C89.99995229894523 295.3884469628354 89.99995229894535 511.61345296162045 167.49995444904744 518.5884531551296C244.99995659914953 525.5634533486389 244.99995659914953 320.38219765624336 322.49995874925173 320.96344767236917C399.9999608993537 321.5446976884949 399.99996089935394 540.6759537679088 477.49996304945614 520.9134532196327C554.9999651995581 501.15095267135666 554.9999651995583 232.61344522125268 632.4999673496604 241.91344547926494C709.9999694997625 251.2134457372772 709.9999694997623 549.3947040097953 787.4999716498646 558.1134542516818C864.9999737999669 566.8322044935683 864.9999737999669 300.03844709184153 942.499975950069 276.7884464468109C1019.9999781001713 253.53844580178026 1019.9999781001711 441.2822010104028 1097.4999802502734 465.1134516715591C1174.9999824003755 488.94470233271556 1213.7499834754267 395.3634497364672 1252.4999845504776 372.11344909143656 " transform="rotate(15.5, 400, 400)"></path><path d="M-425.0000629425047 481.0130622996494C-387.5000619021327 425.325560754697 -350.0000608617607 252.07555594817825 -275.00005878101666 258.26305611983963C-200.00005670027258 264.450556291501 -200.0000567002727 496.20056272100004 -125.00005461952867 505.7630629862949C-50.000052538784644 515.3255632515898 -50.000052538784644 294.26305711859675 24.999949541959495 296.5130571810191C99.9999516227034 298.7630572434414 99.99995162270363 508.01306304871724 174.99995370344755 514.7630632359842C249.99995578419157 521.5130634232512 249.99995578419157 322.95055791448135 324.9999578649355 323.5130579300869C399.9999599456795 324.07555794569254 399.9999599456796 536.1380638289963 474.99996202642353 517.0130632984065C549.9999641071677 497.8880627678168 549.9999641071677 238.01305555803876 624.9999661879117 247.01305580772805C699.9999682686557 256.0130560574173 699.9999682686555 544.57556406308 774.9999703493995 553.0130642971637C849.9999724301438 561.4505645312474 849.9999724301438 303.26305736828607 924.9999745108878 280.76305674406285C999.999976591632 258.26305611983963 999.9999765916316 439.950561160442 1074.9999786723756 463.01306180027086C1149.99998075312 486.0755624400996 1187.4999817934918 395.5130599276012 1224.9999828338637 373.013059303378 " transform="rotate(15, 400, 400)"></path><path d="M-397.50006313323956 478.312641894137C-361.25006212754664 424.481390400683 -325.00006112185366 257.00638575438154 -252.5000591104678 262.9876359203209C-180.0000570990819 268.9688860862602 -180.00005709908197 492.99389230144266 -107.50005508769607 502.23764255789433C-35.00005307631011 511.48139281434607 -35.00005307631011 297.7876368857861 37.49994893507579 299.9626369461277C109.9999509464617 302.1376370064693 109.9999509464617 504.41264261823596 182.49995295784765 510.9376427992607C254.99995496923339 517.4626429802854 254.99995496923339 325.5188876551412 327.49995698061923 326.06263767022665C399.9999589920051 326.60638768531203 399.9999589920053 531.6001433725057 472.49996100339115 513.1126428596023C544.9999630147769 494.62514234669885 544.9999630147771 243.41263537724672 617.499965026163 252.112635618613C689.9999670375489 260.8126358599793 689.9999670375487 539.7563935987865 762.4999690489346 547.9126438250674C834.9999710603206 556.0688940513484 834.9999710603206 306.4876371271524 907.4999730717066 284.7376365237367C979.9999750830925 262.9876359203209 979.9999750830923 438.61889079290324 1052.4999770944783 460.91264141140437C1124.9999791058642 483.20639202990554 1161.249980111557 395.6626396011571 1197.49998111725 373.9126389977413 " transform="rotate(14.5, 400, 400)"></path><path d="M-370.0000633239745 475.61217571225745C-335.0000623529606 423.6371742703018 -300.0000613819467 261.93716978421764 -230.00005943991894 267.71216994443495C-160.00005749789113 273.48717010465225 -160.00005749789125 489.78717610551803 -90.00005555586347 498.7121763531266C-20.00005361383569 507.6371766007351 -20.00005361383569 301.3121708766083 49.99994832819209 303.4121709348691C119.99995027021987 305.51217099313 119.99995027021998 500.81217641138744 189.99995221224765 507.11217658616994C259.9999541542753 513.4121767609524 259.9999541542753 328.0871716194339 329.9999560963031 328.61217163399914C399.99995803833076 329.13717164856433 399.9999580383309 527.0621771396479 469.99995998035865 509.21217664443077C539.9999619223863 491.36217614921367 539.9999619223864 248.81216942008746 609.999963864414 257.2121696531308C679.9999658064419 265.6121698861741 679.9999658064419 534.937177358126 749.9999677484695 542.8121775766041C819.9999696904974 550.6871777950822 819.9999696904974 309.71217110965165 889.9999716325251 288.7121705270433C959.9999735745532 267.71216994443495 959.9999735745528 437.2871746489972 1029.9999755165807 458.8121752461708C1099.9999774586086 480.3371758433443 1134.9999784296224 395.81217349834577 1169.999979400636 374.81217291573745 " transform="rotate(14, 400, 400)"></path><path d="M-342.5000635147093 472.91174004795596C-308.75006257837447 422.7929886574987 -275.00006164203967 266.86798433163193 -207.50005976937007 272.43673448612714C-140.00005789670047 278.0054846406224 -140.00005789670047 486.5804904271715 -72.50005602403087 495.1867406659369C-5.000054151361212 503.79299090470226 -5.000054151361212 304.8367353850086 62.49994772130839 306.86173544118867C129.99994959397804 308.88673549736876 129.99994959397804 497.211740722117 197.49995146664764 503.28674089065726C264.99995333931724 509.36174105919747 264.99995333931724 330.6554861013047 332.49995521198684 331.16173611534975C399.99995708465644 331.66798612939476 399.99995708465644 522.524241424368 467.49995895732604 505.31174094683735C534.9999608299958 488.09924046930655 534.9999608299959 254.21173398050635 602.4999627026654 262.3117342052267C669.9999645753351 270.41173442994705 669.9999645753351 530.1179916350434 737.4999664480047 537.7117418457187C804.9999683206743 545.3054920563941 804.9999683206743 312.93673560972894 872.4999701933439 292.68673504792804C939.9999720660137 272.43673448612714 939.9999720660135 435.9554890226693 1007.4999739386831 456.71173959851524C1074.999975811353 477.46799017436115 1108.7499767476875 395.96173791311253 1142.4999776840223 375.7117373513117 " transform="rotate(13.5, 400, 400)"></path><path d="M-315.0000637054442 470.2113196424435C-282.5000628037884 421.94881830348476 -250.0000619021327 271.7988141378352 -185.0000600988212 277.16131428660844C-120.00005829550969 282.5238144353816 -120.0000582955098 483.3738200076141 -55.00005649219827 491.6613202375363C9.999945311113265 499.9488204674585 9.999945311113265 308.3613151521979 74.99994711442474 310.31131520629725C139.99994891773622 312.2613152603966 139.99994891773622 493.61132029163565 204.99995072104775 499.4613204539337C269.9999525243592 505.3113206162317 269.9999525243592 333.22381584196455 334.9999543276706 333.7113158554894C399.9999561309821 334.19881586901425 399.99995613098224 517.9863209678774 464.99995793429366 501.411320508033C529.9999597376051 484.83632004818855 529.9999597376053 259.6113137997143 594.9999615409167 267.4113140161117C659.9999633442283 275.21131423250904 659.999963344228 525.29882117075 724.9999651475396 532.6113213736226C789.9999669508511 539.9238215764951 789.9999669508511 316.1613153685953 854.9999687541626 296.66131482760187C919.9999705574742 277.16131428660844 919.999970557474 434.62381865513044 984.9999723607857 454.61131920964874C1049.9999741640972 474.59881976416705 1082.4999750657528 396.1113175866684 1114.9999759674085 376.611317045675 " transform="rotate(13, 400, 400)"></path><path d="M-287.5000638961791 467.5108534605639C-256.25006302920235 421.10460217310356 -225.00006216222567 276.7295981676713 -162.50006042827235 281.8858483107225C-100.000058694319 287.04209845377363 -100.00005869431902 480.16710381168946 -37.50005696036567 488.1358540327685C24.999944773587686 496.1046042538476 24.999944773587686 311.8858491430201 87.49994650754104 313.7608491950387C149.9999482414944 315.6358492470573 149.99994824149445 490.0108540847871 212.49994997544786 495.63585424084295C274.9999517094011 501.2608543968987 274.9999517094011 335.7920998062572 337.49995344335446 336.2608498192619C399.9999551773078 336.72959983226656 399.9999551773078 513.4483547350196 462.4999569112613 497.5108542928615C524.9999586452145 481.5733538507035 524.9999586452146 265.0108478425551 587.4999603791679 272.5108480506295C649.9999621131213 280.0108482587039 649.9999621131211 520.4796049300894 712.4999638470745 527.5108551251592C774.9999655810279 534.5421053202289 774.9999655810279 319.3858493510945 837.4999673149814 300.6358488309085C899.9999690489346 281.8858483107225 899.9999690489346 433.29210251122447 962.4999707828881 452.51085304441517C1024.9999725168414 471.72960357760576 1056.249973383818 396.2608514838571 1087.4999742507946 377.51085096367115 " transform="rotate(12.5, 400, 400)"></path><path d="M-260.00006408691394 464.8104559432351C-230.0000632546163 420.2604547072732 -200.0000624223187 281.6604508620582 -140.00006075772347 286.61045099938735C-80.00005909312824 291.56045113671644 -80.00005909312827 476.96045628031567 -20.00005742853307 484.6104564925515C39.99994423606216 492.26045670478743 39.99994423606216 315.41045179839307 99.99994590065734 317.2104518483309C159.99994756525257 319.01045189826874 159.99994756525268 486.41045654248944 219.99994922984786 491.810456692303C279.99995089444303 497.2104568421165 279.99995089444303 338.3604524351007 339.9999525590382 338.8104524475852C399.9999542236335 339.26045246006964 399.9999542236335 508.9104571667126 459.99995588822867 493.6104567422408C519.9999575528238 478.3104563177691 519.9999575528241 270.41045054994663 579.9999592174191 277.61045074969803C639.9999608820144 284.8104509494495 639.9999608820143 515.6604573539796 699.9999625466094 522.4104575412465C759.9999642112048 529.1604577285135 759.9999642112048 322.61045199814447 819.9999658758002 304.6104514987659C879.9999675403953 286.61045099938735 879.9999675403951 431.9604550318693 939.9999692049903 450.41045554373227C999.9999708695857 468.8604560555953 1029.9999717018832 396.41045404559657 1059.9999725341809 378.41045354621804 " transform="rotate(12, 400, 400)"></path><path d="M-232.5000642776488 462.11003553772275C-203.75006348003024 419.41628435325924 -175.0000626824117 286.59128066826156 -117.50006108717463 291.3350307998686C-60.00005949193752 296.07878093147565 -60.00005949193755 473.7537858607583 -2.5000578967004685 481.085036064151C54.99994369853664 488.4162862675437 54.99994369853664 318.9350315655824 112.49994529377369 320.6600316134395C169.9999468890108 322.38503166129664 169.99994688901086 482.8100361120081 227.49994848424785 487.9850362555794C284.99995007948496 493.1600363991507 284.99995007948496 340.9287821757606 342.49995167472207 341.36003218772487C399.99995326995906 341.79128219968914 399.9999532699592 504.372536710222 457.4999548651963 489.71003630343654C514.9999564604333 475.0475358966511 514.9999564604334 275.81003036915456 572.4999580556705 282.71003056058305C629.9999596509075 289.6100307520115 629.9999596509074 510.8412868896862 687.4999612461445 517.3100370691503C744.9999628413816 523.7787872486144 744.9999628413816 325.8350317570108 802.4999644366187 308.5850312784397C859.9999660318558 291.3350307998686 859.9999660318558 430.6287846643304 917.4999676270929 448.3100351548659C974.99996922233 465.99128564540126 1003.7499700199485 396.56003371915244 1032.499970817567 379.31003324058133 " transform="rotate(11.5, 400, 400)"></path><path d="M-205.00006446838367 459.40955409705407C-177.50006370544418 418.572052964089 -150.0000629425047 291.5220494393086 -95.00006141662578 296.0595495651936C-40.0000598907468 300.5970496910786 -40.000059890746854 470.5470544060446 14.999941635132132 477.55955460059414C69.99994316101106 484.5720547951437 69.99994316101106 322.4595502976155 124.99994468689005 324.10955034339185C179.99994621276898 325.7595503891682 179.99994621276903 479.2095546463705 234.99994773864796 484.1595547836996C289.9999492645269 489.1095549210287 289.9999492645269 343.4970508812642 344.9999507904058 343.9095508927083C399.99995231628475 344.3220509041524 399.99995231628486 499.83455521857513 454.9999538421638 485.809554829476C509.9999553680426 471.78455444037684 509.99995536804283 281.2095491532063 564.9999568939216 287.80954933631176C619.9999584198007 294.4095495194172 619.9999584198005 506.0220553902365 674.9999599456795 512.2095555618979C729.9999614715585 518.3970557335592 729.9999614715585 329.059550480721 784.9999629974375 312.5595500229573C839.9999645233165 296.0595495651936 839.9999645233163 429.29705326163537 894.9999660491953 446.20955373084314C949.9999675750744 463.1220542000509 977.4999683380138 396.70955235755207 1004.9999691009532 380.2095518997884 " transform="rotate(11, 400, 400)"></path><path d="M-177.50006465911855 456.70909554456904C-151.25006393085812 417.7278444631023 -125.00006320259772 296.45284109853924 -72.50006174607688 300.7840912187022C-20.000060289556046 305.11534133886516 -20.00006028955613 467.3403458395145 32.49994116696473 474.0340960252209C84.99994262348554 480.7278462109273 84.99994262348554 325.9840919178322 137.4999440800064 327.5590919615278C189.99994553652715 329.13409200522347 189.99994553652726 475.60909606891653 242.49994699304807 480.3340962000034C294.9999484495688 485.05909633109025 294.9999484495688 346.0653424749514 347.49994990608957 346.4590924858753C399.99995136261043 346.8528424967992 399.99995136261055 495.2965966151118 452.4999528191312 481.909096243699C504.99995427565204 468.5215958722862 504.99995427565216 286.60909082544157 557.4999557321729 292.90909100022407C609.9999571886939 299.20909117500656 609.9999571886937 501.2028467789704 662.4999586452145 507.109096942829C714.9999601017353 513.0153471066876 714.9999601017353 332.2840920926147 767.4999615582562 316.5340916556585C819.9999630147772 300.7840912187022 819.9999630147768 427.9653447471239 872.4999644712977 444.10909519500404C924.9999659278187 460.25284564288415 951.2499666560789 396.8590938841353 977.4999673843395 381.1090934471791 " transform="rotate(10.5, 400, 400)"></path><path d="M-150.0000648498534 454.00869802724026C-125.00006415627206 416.88369699727195 -100.00006346269072 301.3836937929261 -50.000062075528035 305.50869390736705C-0.000060688365323358084 309.63369402180797 -0.0000606883653802015 464.13369830814065 49.99994069879733 470.50869848500395C99.99994208596001 476.88369866186713 99.99994208596001 329.50869457320516 149.9999434731227 331.00869461482C199.99994486028538 332.5086946564349 199.99994486028544 472.0086985266188 249.99994624744807 476.5086986514634C299.99994763461075 481.00869877630805 299.99994763461075 348.6336951037949 349.9999490217733 349.0086951141986C399.999950408936 349.3836951246023 399.9999504089361 490.7586990468048 449.9999517960988 478.0086986930783C499.9999531832615 465.2586983393518 499.9999531832615 292.00869353283315 549.9999545704242 298.0086936992926C599.9999559575868 304.00869386575215 599.9999559575867 496.3836992028606 649.9999573447495 502.0086993589164C699.9999587319122 507.6336995149722 699.9999587319122 335.50869473966463 749.9999601190749 320.50869432351584C799.9999615062377 305.50869390736705 799.9999615062375 426.63369726776864 849.9999628934002 442.0086976943212C899.9999642805628 457.38369812087376 924.9999649741444 397.00869644587476 949.9999656677255 382.00869602972597 " transform="rotate(10, 400, 400)"></path><path d="M-122.50005741119374 451.3082776217278C-98.75005675229146 416.03952664325794 -75.00005609338919 306.3145235991294 -27.50005477558466 310.2332737078483C19.99994654221993 314.1520238165672 19.999946542219874 460.9270278885832 67.49994786002446 466.98327805660335C114.99994917782897 473.0395282246234 114.99994917782897 333.0332743403945 162.49995049563358 334.45827437992864C209.9999518134381 335.88327441946274 209.99995181343814 468.40827809613745 257.4999531312427 472.68327821473986C304.9999544490472 476.95827833334226 304.9999544490472 351.20202484445474 352.4999557668517 351.55827485433826C399.9999570846562 351.9145248642218 399.99995708465633 486.2207785903141 447.49995840246083 474.10827825427396C494.99995972026534 461.99577791823384 494.99995972026545 297.4082733520411 542.49996103807 303.10827351017764C589.9999623558746 308.8082736683142 589.9999623558743 491.56452873856716 637.499963673679 496.9082788868202C684.9999649914836 502.2520290350732 684.9999649914836 338.73327449853105 732.4999663092882 324.4832741031897C779.9999676270928 310.2332737078483 779.9999676270926 425.3020269002298 827.4999689448972 439.9082773054547C874.9999702627019 454.51452771067966 898.749970921604 397.15827611943064 922.4999715805063 382.90827572408926 " transform="rotate(9.5, 400, 400)"></path><path d="M-95.00002708435048 448.60782669863727C-72.50002646012727 415.1953257716658 -50.00002583590407 311.2453228877546 -5.000024587457631 314.9578229907514C39.99997666098878 318.67032309374827 39.99997666098872 457.72032695144765 84.99997790943516 463.45782711062463C129.99997915788157 469.1953272698015 129.99997915788157 336.55782359000574 174.999980406328 337.9078236274591C219.9999816547744 339.2578236649125 219.9999816547745 464.807827148078 264.9999829032209 468.85782726043817C309.9999841516672 472.90782737279835 309.9999841516672 353.7703240675365 354.9999854001137 354.1078240768998C399.99998664856 354.44532408626316 399.99998664856014 481.6828276162454 444.99998789700646 470.2078272978915C489.9999891454529 458.7328269795377 489.9999891454529 302.8078226536709 534.9999903938993 308.2078228034845C579.9999916423458 313.60782295329807 579.9999916423457 486.7453277566956 624.9999928907921 491.80782789714584C669.9999941392385 496.8703280375961 669.9999941392385 341.9578237398193 714.9999953876851 328.4578233652854C759.9999966361315 314.9578229907514 759.9999966361313 423.97032601511285 804.9999978845777 437.8078263990102C849.9999991330243 451.64532678290743 872.4999997572472 397.3078252754084 895.0000003814707 383.80782490087444 " transform="rotate(9, 400, 400)"></path><path d="M-67.49999675750723 445.90739103433583C-46.249996167963076 414.3511401588628 -24.999995578418932 316.17613743516887 17.50000560066934 319.6823875324436C60.000006779757655 323.1886376297184 60.0000067797576 454.5136412731012 102.50000795884588 459.932391423435C145.00000913793417 465.3511415737687 145.00000913793417 340.082388098406 187.50001031702243 341.35738813377867C230.0000114961107 342.6323881691513 230.0000114961108 461.2073914588076 272.50001267519906 465.03239156492555C315.0000138542873 468.8573916710435 315.0000138542873 356.3386385494073 357.5000150333756 356.65738855825043C400.00001621246383 356.9761385670936 400.00001621246383 477.1448919009657 442.5000173915521 466.30739160029816C485.00001857064035 455.4698912996307 485.00001857064046 308.2073872140898 527.5000197497287 313.3073873555804C570.0000209288171 318.407387497071 570.0000209288169 481.92614203361313 612.5000221079052 486.70739216626055C655.0000232869936 491.488642298908 655.0000232869936 345.1823882398966 697.5000244660819 332.4323878861701C740.0000256451702 319.6823875324436 740.00002564517 422.638640388785 782.5000268242584 435.70739075135464C825.0000280033466 448.77614111392427 846.2500285928909 397.4573896901752 867.5000291824349 384.7073893364487 " transform="rotate(8.5, 400, 400)"></path><path d="M-39.9999969482421 443.2069629994289C-19.999996393377018 413.50696217545425 0.0000041614880501583684 321.10695961197763 40.000005271218185 324.40695970353033C80.00000638094838 327.7069597950831 80.00000638094832 451.3069632241493 120.00000749067848 456.40696336563985C160.0000086004086 461.5069635071304 160.0000086004086 343.60696023620085 200.00000971013878 344.8069602694927C240.00001081986892 346.00696030278465 240.00001081986898 457.6069633989317 280.0000119295991 461.20696349880745C320.00001303932925 464.8069635986832 320.00001303932925 358.9069606606726 360.0000141490593 359.2069606689956C400.00001525878946 359.50696067731855 400.0000152587895 472.6069638150806 440.0000163685197 462.4069635320993C480.0000174782498 452.2069632491182 480.0000174782499 313.6069594039032 520.00001858798 318.40695953707086C560.0000196977102 323.20695967023846 560.0000196977101 477.1069639399252 600.0000208074403 481.60696406476984C640.0000219171704 486.1069641896145 640.0000219171704 348.40696036936845 680.0000230269006 336.4069600364494C720.0000241366308 324.40695970353033 720.0000241366306 421.30696239185164 760.0000252463608 433.60696273309367C800.000026356091 445.9069630743357 820.0000269109561 397.60696173433655 840.0000274658211 385.6069614014175 " transform="rotate(8, 400, 400)"></path><path d="M-12.499997138976966 440.50651207633837C6.250003381209041 412.66276130386217 25.000003901395047 326.0377589006028 62.50000494176706 329.13150898643346C100.0000059821391 332.2252590722642 100.00000598213904 448.1002622870137 137.50000702251106 452.88151241966114C175.00000806288307 457.66276255230855 175.00000806288307 347.13150948581205 212.50000910325514 348.25650951702323C250.0000101436271 349.38150954823436 250.0000101436272 454.00651245087226 287.50001118399916 457.38151254450577C325.0000122243712 460.75651263813927 325.0000122243712 361.47525988375435 362.50001326474313 361.75650989155713C400.00001430511514 362.0377598993599 400.0000143051152 468.06901284101184 437.5000153454871 458.5065125757169C475.0000163858592 448.94401231042207 475.0000163858592 319.00650870553307 512.5000174262312 323.5065088303777C550.0000184666033 328.00650895522233 550.0000184666031 472.2877629580537 587.5000195069751 476.50651307509554C625.0000205473473 480.7252631921374 625.0000205473473 351.6315096106567 662.5000215877193 340.3815092985451C700.0000226280914 329.13150898643346 700.0000226280912 419.9752615067347 737.5000236684632 431.5065118266491C775.0000247088354 443.03776214656347 793.7500252290213 397.7565108903143 812.5000257492072 386.50651057820266 " transform="rotate(7.5, 400, 400)"></path><path d="M15.000002670288168 437.80607641203693C32.5000031557951 411.8185756910591 50.000003641302044 330.968573448017 85.00000461231593 333.8560735281257C120.00000558332982 336.7435736082343 120.00000558332977 444.8935766086672 155.00000655434366 449.3560767324715C190.00000752535755 453.81857685627574 190.00000752535755 350.65607399421236 225.00000849637144 351.70607402334275C260.0000094673853 352.7560740524732 260.0000094673854 450.4060767616019 295.0000104383992 453.55607684899314C330.00001140941305 456.7060769363844 330.00001140941305 364.04357436562515 365.00001238042694 364.30607437290774C400.00001335144077 364.56857438019034 400.0000133514408 463.53107712573217 435.0000143224547 454.6060768781236C470.00001529346855 445.681076630515 470.00001529346855 324.40607326595193 505.0000162644824 328.6060733824736C540.0000172354963 332.80607349899526 540.0000172354963 467.4685772349712 575.0000182065102 471.40607734421025C610.0000191775241 475.3435774534493 610.0000191775241 354.856074110734 645.0000201485379 344.35607381942987C680.000021119552 333.8560735281257 680.0000211195518 418.64357588040684 715.0000220905657 429.4060761789936C750.0000230615797 440.16857647758036 767.5000235470866 397.9060753050811 785.0000240325934 387.4060750137769 " transform="rotate(7, 400, 400)"></path><path d="M42.5000024795533 435.1056331183409C58.75000293038117 410.97438244886155 75.00000338120904 335.8993803660368 107.50000428286478 338.58063044042336C140.00000518452055 341.26188051480995 140.0000051845205 441.6868833009262 172.50000608617626 445.8306334158873C205.00000698783202 449.9743835308484 205.00000698783202 354.1806308732181 237.50000788948773 355.1556309002678C270.0000087911435 356.13063092731744 270.0000087911435 446.80563344293694 302.50000969279927 449.730633524086C335.000010594455 452.655633605235 335.000010594455 366.6118812181014 367.5000114961107 366.8556312248638C400.00001239776645 367.09938123162624 400.0000123977665 458.99313378105785 432.5000132994222 450.70563355113563C465.00001420107793 442.4181333212134 465.00001420107805 329.80563019697627 497.50001510273376 333.70563030517496C530.0000160043895 337.60563041337366 530.0000160043894 462.64938388249413 562.5000169060452 466.3056339839304C595.0000178077009 469.9618840853667 595.0000178077009 358.0806309814168 627.5000187093567 348.33063071092005C660.0000196110125 338.58063044042336 660.0000196110124 417.31188262468436 692.5000205126682 427.3056329019435C725.000021414324 437.29938317920266 741.2500218651518 398.05563209045334 757.5000223159797 388.30563181995666 " transform="rotate(6.5, 400, 400)"></path><path d="M70.00000228881842 432.40524323040665C85.00000270496723 410.13024261242566 100.00000312111604 340.8302406898182 130.00000395341365 343.30524075848274C160.00000478571127 345.7802408271473 160.00000478571127 438.48024339894687 190.00000561800886 442.3052435050648C220.00000645030647 446.1302436111828 220.00000645030647 357.7052411579856 250.00000728260406 358.6052411829545C280.0000081149017 359.5052412079234 280.00000811490173 443.2052435300338 310.0000089471993 445.90524360494055C340.0000097794969 448.6052436798473 340.0000097794969 369.1802414763394 370.0000106117945 369.40524148258163C400.00001144409214 369.63024148882386 400.00001144409214 454.45524384214536 430.0000122763897 446.80524362990946C460.0000131086873 439.1552434176736 460.0000131086874 335.2052405337624 490.00001394098496 338.8052406336381C520.0000147732826 342.4052407335138 520.0000147732826 457.83024393577887 550.0000156055801 461.2052440294123C580.0000164378778 464.5802441230458 580.0000164378778 361.3052412578613 610.0000172701755 352.305241008172C640.0000181024731 343.30524075848274 640.000018102473 415.9802427747237 670.0000189347705 425.2052430306552C700.0000197670682 434.4302432865867 715.000020183217 398.20524228158735 730.0000205993658 389.2052420318981 " transform="rotate(6, 400, 400)"></path><path d="M97.50000209808356 429.7047694191325C111.2500024795533 409.28601885264993 125.00000286102303 345.76101709025977 152.5000036239625 348.0297671532023C180.000004386902 350.2985172161448 180.00000438690196 435.27351957362777 207.50000514984146 438.7797696709025C235.00000591278092 442.2860197681773 235.00000591278092 361.2297675194132 262.50000667572044 362.0547675423014C290.00000743865985 362.8797675651896 290.0000074386599 439.60476969379073 317.50000820159937 442.07976976245527C345.00000896453884 444.5547698311198 345.00000896453884 371.74851781123755 372.5000097274783 371.9547678169596C400.00001049041776 372.16101782268163 400.0000104904178 449.91726997989304 427.5000112533573 442.90476978534343C455.0000120162967 435.8922695907939 455.0000120162968 340.6047669472086 482.5000127792362 343.90476703876135C510.00001354217574 347.20476713031405 510.0000135421756 453.01102006572376 537.5000143051152 456.1047701515544C565.0000150680546 459.1985202373851 565.0000150680546 364.52976761096596 592.5000158309941 356.2797673820841C620.0000165939337 348.0297671532023 620.0000165939335 414.64851900142315 647.5000173568731 423.10476923602704C675.0000181198126 431.5610194706309 688.7500185012823 398.3547685493815 702.500018882752 390.10476832049966 " transform="rotate(5.5, 400, 400)"></path><path d="M125.00000190734869 427.00434901362013C137.50000225413936 408.441848498636 150.00000260093003 350.69184689646306 175.00000329451137 352.7543469536835C200.00000398809271 354.816847010904 200.00000398809271 432.0668491540703 225.00000468167406 435.254349242502C250.0000053752554 438.44184933093356 250.0000053752554 364.7543472866026 275.00000606883674 365.50434730741C300.0000067624181 366.2543473282175 300.00000676241814 436.0043492633094 325.0000074559994 438.2543493257317C350.00000814958076 440.504349388154 350.00000814958076 374.3168475518974 375.00000884316205 374.5043475570993C400.0000095367434 374.6918475623012 400.00000953674345 445.3793495234024 425.0000102303248 439.00434934653913C450.00001092390613 432.6293491696759 450.00001092390613 346.0043467664166 475.0000116174875 349.0043468496463C500.0000123110688 352.0043469328761 500.00001231106876 448.1918496014303 525.0000130046501 451.0043496794582C550.0000136982314 453.8168497574861 550.0000136982314 367.7543473698323 575.0000143918128 360.25434716175795C600.0000150853942 352.7543469536835 600.0000150853941 413.3168486338843 625.0000157789755 421.0043488471606C650.0000164725568 428.6918490604369 662.5000168193476 398.5043482229374 675.0000171661382 391.004348014863 " transform="rotate(5, 400, 400)"></path><path d="M152.49998645782478 424.30392097871317C163.74998676993636 407.59767051522743 174.99998708204797 355.6226690732718 197.49998770627118 357.47891912477024C219.99998833049438 359.33516917626866 219.99998833049438 428.86017110511835 242.4999889547176 431.72892118470685C264.9999895789408 434.5976712642953 264.9999895789408 368.2789194243974 287.499990203164 368.9539194431241C309.9999908273872 369.6289194618508 309.99999082738725 432.4039212034335 332.4999914516104 434.4289212596136C354.9999920758336 436.4539213157937 354.9999920758336 376.88516966316274 377.49999270005685 377.0539196678444C399.99999332428 377.22266967252614 399.99999332428007 440.8414214375172 422.49999394850323 435.1039212783403C444.99999457272645 429.3664211191634 444.99999457272645 351.40391895623 467.49999519694967 354.1039190311368C489.9999958211729 356.80391910604357 489.99999582117283 443.3726715077423 512.499996445396 445.9039215779675C534.9999970696192 448.4351716481926 534.9999970696192 370.9789194993042 557.4999976938425 364.2289193120372C579.9999983180658 357.47891912477024 579.9999983180656 411.98517063695095 602.4999989422888 418.90392082889963C624.9999995665121 425.82267102084825 636.2499998786236 398.6539202670987 647.5000001907354 391.9039200798318 " transform="rotate(4.5, 400, 400)"></path><path d="M179.9999862670899 421.60348149971446C189.99998654452241 406.75348108772715 199.99998682195496 360.5534798059888 219.99998737682003 362.20347985176517C239.99998793168513 363.85347989754155 239.9999879316851 425.65348161207464 259.9999884865502 428.2034816828199C279.99998904141523 430.7534817535652 279.99998904141523 371.8034801181004 299.99998959628033 372.40348013474636C319.9999901511454 373.0034801513923 319.9999901511454 428.80348169946586 339.9999907060105 430.6034817494037C359.99999126087556 432.4034817993416 359.99999126087556 379.45348033033633 379.9999918157406 379.6034803344978C399.9999923706057 379.7534803386593 399.9999923706057 436.3034819075403 419.9999929254708 431.20348176604966C439.99999348033583 426.1034816245591 439.9999934803359 356.80347970195163 459.9999940352009 359.20347976853543C479.999994590066 361.60347983511923 479.99999459006597 438.5534819699626 499.99999514493106 440.8034820323849C519.9999956997962 443.05348209480724 519.9999956997962 374.2034801846842 539.9999962546613 368.2034800182247C559.9999968095264 362.20347985176517 559.9999968095262 410.6534811959258 579.9999973643913 416.8034813665468C599.9999979192564 422.9534815371678 609.9999981966889 398.8034808671683 619.9999984741214 392.80348070070875 " transform="rotate(4, 400, 400)"></path><path d="M207.49998607635501 418.90303820601844C216.24998631910847 405.90928784552955 224.99998656186196 365.48428672400854 242.4999870473689 366.9280367640628C259.9999875328758 368.37178680411716 259.9999875328758 422.4467883043336 277.49998801838274 424.67803836623574C294.9999885038897 426.90928842813787 294.9999885038897 375.32803699710615 312.4999889893967 375.8530370116714C329.9999894749036 376.3780370262366 329.9999894749036 425.20303838080093 347.4999899604105 426.7780384244966C364.99999044591743 428.3530384681922 364.99999044591743 382.0217871828126 382.4999909314244 382.1530371864539C399.9999914169313 382.2842871900952 399.9999914169314 431.7655385628661 417.4999919024383 427.30303843906177C434.9999923879452 422.8405383152575 434.9999923879452 362.20303663297597 452.49999287345213 364.3030366912368C469.9999933589591 366.40303674949763 469.9999933589591 433.7342886174856 487.499993844466 435.7030386721051C504.999994329973 437.6717887267247 504.999994329973 377.428037055367 522.4999948154799 372.17803690971493C539.9999953009869 366.9280367640628 539.9999953009868 409.3217879402034 557.4999957864939 414.7030380894968C574.9999962720008 420.0842882387902 583.7499965147542 398.95303765254056 592.4999967575077 393.70303750688845 " transform="rotate(3.5, 400, 400)"></path><path d="M234.99998588562016 416.2026139858088C242.49998609369456 405.0651136768183 249.99998630176896 370.41511271551457 264.99998671791775 371.6526127498468C279.9999871340666 372.8901127841791 279.9999871340666 419.2401140700789 294.99998755021534 421.1526141231379C309.9999879663642 423.06511417619686 309.9999879663642 378.85261294959827 324.999988382513 379.3026129620827C339.9999887986618 379.75261297456717 339.9999887986618 421.60261413562233 354.9999892148106 422.95261417307574C369.99998963095936 424.30261421052916 369.99998963095936 384.5901131087752 384.9999900471082 384.7026131118963C399.999990463257 384.8151131150174 399.999990463257 427.22761429167815 414.9999908794058 423.4026141855602C429.9999912955546 419.57761407944224 429.99999129555465 367.6026126374867 444.9999917117034 369.4026126874245C459.99999212785224 371.20261273736236 459.99999212785224 428.9151143384949 474.999992544001 430.60261438531165C489.9999929601498 432.29011443212835 489.9999929601498 380.65261299953613 504.9999933762987 376.1526128746915C519.9999937924474 371.6526127498468 519.9999937924474 407.9901137579673 534.9999942085963 412.60261388593307C549.9999946247451 417.2151140138988 557.4999948328194 399.10261351139917 564.9999950408939 394.6026133865545 " transform="rotate(3, 400, 400)"></path><path d="M262.49998569488525 413.50217450681004C268.74998586828065 404.220924249318 274.9999860416759 375.34592344823153 287.4999863884666 376.3771734768418C299.99998673525727 377.408423505452 299.99998673525727 416.0334245770352 312.49998708204794 417.62717462125096C324.9999874288386 419.2209246654668 324.9999874288386 382.37717364330126 337.4999877756293 382.75217365370503C349.99998812241995 383.12717366410874 349.99998812242 418.0021746316547 362.4999884692106 419.12717466286585C374.9999888160013 420.25217469407704 374.9999888160013 387.15842377594873 387.49998916279196 387.25217377854966C399.99998950958263 387.3459237811506 399.99998950958263 422.6896747617012 412.4999898563733 419.50217467326956C424.999990203164 416.314674584838 424.999990203164 373.0021733832083 437.49999054995465 374.5021734248232C449.9999908967453 376.002173466438 449.9999908967453 424.0959248007151 462.499991243536 425.5021748397291C474.99999159032666 426.90842487874306 474.99999159032666 383.87717368491616 487.49999193711733 380.12717358087895C499.99999228390806 376.3771734768418 499.999992283908 406.65842431694216 512.4999926306987 410.5021744235803C524.9999929774893 414.34592453021844 531.2499931508847 399.25217411146866 537.49999332428 395.5021740074315 " transform="rotate(2.5, 400, 400)"></path><path d="M290.00000076293946 410.80173693515997C295.00000090165577 403.3767367291663 300.000001040372 380.2767360882971 310.00000131780456 381.10173611118535C320.0000015952371 381.9267361340735 320.0000015952371 412.82673699134006 330.0000018726696 414.1017370267127C340.00000215010215 415.37673706208534 340.00000215010215 385.90173624435295 350.0000024275347 386.2017362526759C360.00000270496724 386.5017362609989 360.00000270496724 414.4017370350357 370.0000029823998 415.3017370600046C380.0000032598323 416.2017370849735 380.0000032598323 389.7267363504709 390.00000353726483 389.80173635255164C400.0000038146974 389.8767363546324 400.0000038146974 418.15173713907285 410.0000040921299 415.60173706832757C420.0000043695625 413.0517369975823 420.0000043695625 378.4017360362785 430.00000464699497 379.60173606957045C440.00000492442757 380.8017361028624 440.0000049244275 419.27673717028404 450.00000520186006 420.40173720149517C460.0000054792926 421.52673723270635 460.0000054792926 387.1017362776448 470.00000575672516 384.1017361944151C480.0000060341577 381.10173611118535 480.00000603415765 405.32673678326563 490.0000063115902 408.40173686857617C500.00000658902275 411.47673695388664 505.000006727739 399.40173661888684 510.00000686645524 396.4017365356571 " transform="rotate(2, 400, 400)"></path><path d="M317.5000005722046 408.101308900253C321.2500006762418 402.5325587457578 325.00000078027904 385.2075582651059 332.5000009883534 385.82630828227207C340.00000119642783 386.4450582994382 340.00000119642783 409.6200589423881 347.5000014045022 410.5763089689176C355.0000016125766 411.53255899544706 355.0000016125766 389.4263083821478 362.50000182065105 389.65130838839C370.0000020287254 389.87630839463225 370.0000020287254 410.8013089751598 377.50000223679984 411.4763089938865C385.0000024448742 412.1513090126132 385.0000024448742 392.29505846173623 392.50000265294864 392.3513084632968C400.00000286102306 392.40755846485735 400.00000286102306 413.6138090531877 407.50000306909743 411.70130900012873C415.0000032771718 409.78880894706975 415.00000327717186 383.801308226092 422.5000034852462 384.7013082510609C430.00000369332065 385.60130827602984 430.00000369332065 414.45755907659606 437.500003901395 415.30130910000446C445.00000410946944 416.1450591234128 445.00000410946944 390.3263084071167 452.50000431754387 388.0763083446944C460.00000452561824 385.82630828227207 460.00000452561824 403.99505878633227 467.50000473369266 406.3013088503152C475.0000049417671 408.60755891429807 478.75000504580424 399.5513086630482 482.50000514984146 397.3013086006259 " transform="rotate(1.5, 400, 400)"></path><path d="M344.99999656677244 405.40087132860293C347.4999966361306 401.6883712256061 349.99999670548874 390.13837090517154 354.99999684420504 390.5508709166156C359.9999969829213 390.9633709280597 359.9999969829213 406.413371356693 364.99999712163753 407.0508713743793C369.9999972603538 407.6883713920656 369.9999972603538 392.9508709831994 374.9999973990701 393.1008709873609C379.9999975377864 393.2508709915224 379.9999975377864 407.2008713785408 384.99999767650263 407.65087139102525C389.9999978152189 408.1008714035097 389.9999978152189 394.8633710362584 394.9999979539351 394.90087103729877C399.9999980926514 394.93837103833914 399.9999980926514 409.0758714305594 404.9999982313677 407.80087139518673C409.999998370084 406.5258713598141 409.999998370084 389.2008708791622 414.9999985088002 389.8008708958082C419.9999986475165 390.40087091245414 419.99999864751646 409.63837144616497 424.99999878623277 410.20087146177053C429.99999892494907 410.76337147737615 429.99999892494907 393.55087099984536 434.9999990636653 392.05087095823046C439.99999920238156 390.5508709166156 439.99999920238156 402.6633712526558 444.9999993410978 404.200871295311C449.9999994798141 405.73837133796627 452.49999954917223 399.70087117046637 454.99999961853035 398.20087112885153 " transform="rotate(1, 400, 400)"></path><path d="M372.50000019073485 402.70043375695286C373.75000022541394 400.84418370545444 375.000000260093 395.06918354523714 377.50000032945115 395.2754335509592C380.0000003988093 395.4816835566812 380.0000003988093 403.20668377099787 382.5000004681674 403.525433779841C385.0000005375255 403.8441837886842 385.0000005375255 396.47543358425105 387.50000060688365 396.5504335863318C390.0000006762418 396.62543358841253 390.0000006762418 403.60043378192177 392.50000074559995 403.825433788164C395.00000081495807 404.0504337944062 395.00000081495807 397.43168361078057 397.5000008843162 397.45043361130075C400.0000009536743 397.46918361182094 400.0000009536743 404.53793380793104 402.5000010230325 403.90043379024473C405.0000010923906 403.2629337725584 405.0000010923906 394.6004335322325 407.50000116174874 394.90043354055547C410.0000012311069 395.20043354887844 410.00000123110686 404.8191838157338 412.500001300465 405.10043382353666C415.00000136982317 405.38168383133944 415.00000136982317 396.7754335925741 417.5000014391813 396.0254335717666C420.0000015085394 395.2754335509592 420.0000015085394 401.33168371897926 422.50000157789754 402.10043374030687C425.00000164725566 402.86918376163453 426.25000168193475 399.85043367788455 427.50000171661384 399.10043365707713 " transform="rotate(0.5, 400, 400)"></path></g></svg>