<?xml version="1.0" standalone="no"?>
<!DOCTYPE svg PUBLIC "-//W3C//DTD SVG 20010904//EN"
 "http://www.w3.org/TR/2001/REC-SVG-20010904/DTD/svg10.dtd">
<svg version="1.0" xmlns="http://www.w3.org/2000/svg"
 width="242.000000pt" height="242.000000pt" viewBox="0 0 242.000000 242.000000"
 preserveAspectRatio="xMidYMid meet">
<metadata>
Created by potrace 1.14, written by Peter Selinger 2001-2017
</metadata>
<g transform="translate(0.000000,242.000000) scale(0.100000,-0.100000)"
fill="#000000" stroke="none">
<path d="M1539 2210 c-63 -11 -105 -69 -95 -131 9 -53 30 -84 72 -104 127 -60
237 115 129 207 -30 26 -66 35 -106 28z"/>
<path d="M1353 2182 c-10 -7 -10 -12 0 -25 15 -20 43 -7 34 17 -7 18 -16 20
-34 8z"/>
<path d="M1060 2170 c-9 -6 -10 -10 -3 -10 6 0 15 5 18 10 8 12 4 12 -15 0z"/>
<path d="M955 2150 c-25 -11 1 -11 35 0 20 6 21 8 5 8 -11 0 -29 -3 -40 -8z"/>
<path d="M895 2135 c-25 -12 -26 -14 -5 -9 14 4 29 10 35 15 12 12 5 11 -30
-6z"/>
<path d="M860 2040 c-13 -8 -13 -10 2 -10 9 0 20 5 23 10 8 13 -5 13 -25 0z"/>
<path d="M1143 2033 c9 -2 23 -2 30 0 6 3 -1 5 -18 5 -16 0 -22 -2 -12 -5z"/>
<path d="M1704 2002 c11 -12 23 -22 27 -22 8 0 28 -15 74 -57 11 -10 39 -39
63 -65 23 -26 42 -44 42 -40 0 15 -146 159 -185 182 -39 23 -40 23 -21 2z"/>
<path d="M764 1994 c-18 -14 -18 -15 4 -4 12 6 22 13 22 15 0 8 -5 6 -26 -11z"/>
<path d="M1002 1988 c-9 -4 0 -6 21 -4 21 2 40 6 43 9 7 7 -43 3 -64 -5z"/>
<path d="M1125 1955 c3 -45 -10 -61 -46 -53 -10 2 -16 -12 -19 -46 -5 -48 -6
-50 -50 -64 -48 -16 -131 -66 -167 -101 -38 -36 -99 -124 -116 -166 -18 -46
-19 -41 -19 78 0 57 -3 67 -18 67 -14 0 -17 -8 -15 -40 1 -22 -2 -40 -7 -40
-6 0 -8 7 -4 15 3 9 0 15 -8 15 -10 0 -14 -23 -14 -97 0 -126 0 -123 -15 -123
-7 0 -24 -19 -37 -42 -26 -46 -30 -119 -10 -159 21 -41 72 -88 102 -94 32 -7
29 10 31 -205 l2 -145 153 0 152 0 0 -46 0 -46 -104 -5 c-93 -4 -108 -8 -150
-34 -25 -16 -46 -32 -46 -36 0 -20 -27 -3 -76 48 -93 95 -155 201 -193 331
l-21 71 -36 -11 c-35 -11 -36 -12 -29 -52 11 -77 77 -227 133 -305 14 -19 70
-79 124 -133 81 -80 104 -97 121 -92 14 4 17 3 10 -2 -10 -7 -10 -13 2 -29 28
-37 11 -42 -50 -13 -74 35 -275 238 -275 277 0 6 -3 12 -8 14 -4 2 -21 31 -38
65 -18 34 -35 59 -38 55 -4 -3 -4 1 -1 9 3 9 -3 37 -14 62 -11 26 -18 47 -16
47 3 0 0 11 -5 24 -5 13 -12 44 -15 67 -4 24 -9 51 -10 59 -2 8 -4 25 -4 38
-1 14 -7 22 -18 22 -10 0 -14 -4 -8 -8 6 -4 11 -33 12 -65 2 -52 30 -180 52
-232 71 -172 211 -345 361 -448 l45 -30 199 -3 c119 -2 204 -8 210 -14 13 -13
43 -13 48 0 2 6 88 10 226 10 l223 1 47 36 c56 43 130 110 157 143 l20 25 -30
-25 c-16 -14 -35 -31 -43 -38 -8 -7 -30 -25 -50 -40 -21 -15 -39 -30 -42 -33
-7 -9 -71 -41 -75 -37 -1 2 -5 12 -8 23 -5 16 6 28 47 58 199 143 348 390 372
616 3 25 7 58 8 72 5 33 -5 48 -33 54 -38 7 -46 -3 -49 -65 -9 -183 -112 -397
-253 -524 l-51 -46 -43 30 c-64 44 -91 52 -189 56 -49 2 -91 5 -93 7 -4 5 -7
42 -4 72 1 19 8 20 174 20 l172 0 3 164 3 164 53 51 c53 51 66 81 66 148 0 23
4 28 18 24 26 -9 45 26 27 50 -12 17 -16 17 -36 5 -19 -11 -24 -11 -27 -1 -3
8 -22 32 -42 54 -30 33 -39 52 -44 96 -6 50 -14 149 -15 208 -1 12 -7 22 -14
22 -9 0 -12 -22 -11 -82 0 -46 -2 -87 -5 -93 -3 -5 -6 -18 -7 -27 -1 -10 -2
-24 -3 -30 -1 -7 -10 5 -21 27 -11 22 -25 49 -32 60 -22 35 -113 122 -154 147
-33 21 -142 67 -159 68 -3 0 -12 0 -20 0 -11 0 -15 12 -15 44 0 43 -1 45 -32
48 -30 3 -33 6 -35 38 0 19 -2 41 -2 48 -1 6 -10 12 -21 12 -17 0 -19 -6 -15
-45z m39 -195 c-5 -5 -21 -11 -34 -14 -14 -2 -26 -5 -27 -5 -2 -1 -6 -1 -10
-1 -5 -1 -18 -8 -30 -15 -12 -8 -31 -16 -41 -18 -11 -1 -31 -11 -45 -20 -15
-10 -29 -17 -32 -17 -3 0 -17 -12 -30 -26 -14 -15 -25 -24 -25 -20 0 16 -91
-113 -96 -136 -1 -5 -3 -10 -4 -13 -4 -8 -7 -17 -15 -53 -11 -47 -26 -19 -20
36 14 119 138 256 270 298 48 15 154 19 139 4z m-491 -230 c3 -11 1 -18 -4
-14 -5 3 -9 12 -9 20 0 20 7 17 13 -6z m3 -47 c-2 -10 4 -24 13 -30 14 -11 14
-14 1 -22 -18 -12 -31 -5 -24 13 3 8 0 17 -6 21 -8 5 -8 11 1 21 15 18 18 18
15 -3z m918 -76 c-7 -18 -31 -22 -53 -8 -11 7 -7 12 15 24 32 17 48 10 38 -16z
m-893 -24 c0 -5 2 -16 4 -26 2 -10 -7 -30 -20 -45 -21 -24 -24 -25 -30 -10 -6
16 -9 16 -22 2 -38 -37 -19 20 20 64 20 21 46 30 48 15z m410 -647 c11 -15 -2
-44 -22 -49 -16 -4 -19 0 -19 29 0 28 4 34 18 32 9 -2 20 -7 23 -12z m-94
-129 c7 -8 -6 -12 -80 -26 -54 -10 -107 -32 -184 -77 -23 -14 -35 -16 -43 -8
-13 13 58 92 100 111 25 11 195 11 207 0z m-127 -66 c0 -12 -13 -20 -50 -31
-38 -11 -38 -7 3 19 35 23 47 26 47 12z"/>
<path d="M689 1974 c-10 -13 -10 -17 1 -24 16 -10 44 15 35 30 -9 14 -21 12
-36 -6z"/>
<path d="M913 1971 c-114 -33 -209 -89 -297 -176 -45 -44 -92 -93 -104 -110
-29 -37 -119 -221 -126 -255 -3 -14 -10 -41 -15 -60 -16 -52 -24 -160 -12
-160 15 0 18 10 26 75 3 32 8 62 10 65 2 4 7 22 10 40 3 19 11 41 18 49 7 8 7
12 1 8 -29 -17 98 212 145 261 12 12 19 22 16 22 -3 0 26 28 63 63 83 76 171
131 257 161 36 12 68 26 72 29 8 9 10 9 -64 -12z"/>
<path d="M2052 1944 c-12 -8 -22 -26 -22 -40 0 -26 31 -64 53 -64 24 0 57 31
57 54 0 48 -50 77 -88 50z"/>
<path d="M1497 1926 c-7 -19 11 -32 24 -19 6 6 5 14 -4 22 -12 9 -16 8 -20 -3z"/>
<path d="M613 1923 c-7 -3 -13 -11 -13 -18 0 -8 -29 -42 -65 -77 -36 -35 -65
-66 -65 -70 0 -4 -8 -17 -17 -28 -23 -26 -59 -85 -79 -130 -46 -100 -53 -119
-58 -141 -10 -49 -15 -71 -22 -92 -4 -14 -3 -18 3 -12 5 6 18 39 28 75 23 81
111 256 160 319 32 41 129 137 144 142 10 4 11 10 5 21 -5 8 -15 13 -21 11z"/>
<path d="M1567 1884 c-8 -8 1 -24 14 -24 5 0 9 7 9 15 0 15 -12 20 -23 9z"/>
<path d="M1330 1845 c0 -8 7 -15 15 -15 8 0 15 7 15 15 0 8 -7 15 -15 15 -8 0
-15 -7 -15 -15z"/>
<path d="M860 1812 c0 -10 7 -19 15 -19 8 0 15 9 15 19 0 10 -7 18 -15 18 -8
0 -15 -8 -15 -18z"/>
<path d="M1953 1774 c-8 -20 17 -36 34 -22 10 8 10 14 2 24 -15 18 -28 18 -36
-2z"/>
<path d="M1790 1737 c0 -3 6 -12 14 -19 33 -34 121 -229 140 -313 5 -18 20
-110 21 -120 0 -5 8 -11 17 -13 18 -3 18 3 2 83 -11 52 -44 149 -59 172 -8 12
-15 27 -15 32 0 15 -87 156 -105 171 -8 7 -15 10 -15 7z"/>
<path d="M1577 1724 c-4 -4 -4 -10 -1 -15 6 -10 34 0 34 12 0 10 -24 12 -33 3z"/>
<path d="M2105 1701 c-63 -18 -90 -78 -59 -130 43 -73 144 -55 160 28 12 57
-48 117 -101 102z"/>
<path d="M253 1543 c-7 -3 -13 -11 -13 -18 0 -16 27 -28 35 -15 9 14 -8 38
-22 33z"/>
<path d="M1793 1534 c-7 -19 18 -38 28 -22 9 14 0 38 -12 38 -5 0 -12 -7 -16
-16z"/>
<path d="M1797 1463 c-4 -3 -7 -12 -7 -20 0 -17 26 -17 33 1 8 21 -11 35 -26
19z"/>
<path d="M440 1414 c0 -17 22 -14 28 4 2 7 -3 12 -12 12 -9 0 -16 -7 -16 -16z"/>
<path d="M2140 1311 c0 -11 4 -21 9 -21 18 0 21 18 6 30 -13 10 -15 9 -15 -9z"/>
<path d="M420 1105 c0 -8 4 -15 10 -15 5 0 7 7 4 15 -4 8 -8 15 -10 15 -2 0
-4 -7 -4 -15z"/>
<path d="M2094 1105 c-3 -8 -4 -20 -2 -27 3 -7 7 -1 10 15 6 29 1 36 -8 12z"/>
<path d="M560 1050 c0 -5 5 -10 11 -10 5 0 7 5 4 10 -3 6 -8 10 -11 10 -2 0
-4 -4 -4 -10z"/>
<path d="M2084 1045 c-3 -8 -4 -20 -2 -27 3 -7 7 -1 10 15 6 29 1 36 -8 12z"/>
<path d="M513 1043 c-16 -6 -17 -33 -3 -33 11 0 26 28 19 34 -2 2 -10 1 -16
-1z"/>
<path d="M1842 1031 c2 -7 7 -12 11 -12 12 1 9 15 -3 20 -7 2 -11 -2 -8 -8z"/>
<path d="M195 973 c-16 -16 -16 -17 0 -30 22 -15 35 -9 35 17 0 27 -16 33 -35
13z"/>
<path d="M2056 934 c-9 -26 -14 -49 -12 -51 2 -2 11 17 20 43 9 26 14 49 12
51 -2 2 -11 -17 -20 -43z"/>
<path d="M1752 959 c-31 -12 -44 -49 -24 -71 31 -36 82 -16 82 32 0 32 -27 50
-58 39z"/>
<path d="M602 818 c-8 -8 -9 -15 0 -25 14 -17 39 2 31 23 -6 17 -15 18 -31 2z"/>
<path d="M260 793 c0 -8 5 -13 12 -11 18 6 21 25 3 25 -8 0 -15 -7 -15 -14z"/>
<path d="M650 739 c0 -5 5 -7 10 -4 6 3 10 8 10 11 0 2 -4 4 -10 4 -5 0 -10
-5 -10 -11z"/>
<path d="M1988 743 c-9 -2 -24 -15 -33 -29 -46 -70 53 -146 108 -82 44 52 -6
128 -75 111z"/>
<path d="M1463 713 c-17 -6 -16 -20 1 -26 8 -3 17 1 20 8 6 17 -3 24 -21 18z"/>
<path d="M975 693 c2 -10 4 -20 4 -23 1 -3 5 2 10 10 10 15 6 30 -9 30 -4 0
-7 -8 -5 -17z"/>
<path d="M642 321 c4 -13 18 -16 19 -4 0 4 -5 9 -11 12 -7 2 -11 -2 -8 -8z"/>
<path d="M885 286 c17 -8 32 -12 34 -10 7 6 -2 11 -34 17 l-30 6 30 -13z"/>
<path d="M780 275 c0 -8 7 -15 15 -15 8 0 15 7 15 15 0 8 -7 15 -15 15 -8 0
-15 -7 -15 -15z"/>
<path d="M931 281 c3 -7 7 -12 9 -11 3 1 18 -3 33 -9 30 -12 130 -23 207 -24
73 -2 190 13 190 24 0 6 -15 7 -36 3 -55 -10 -237 -12 -256 -2 -10 5 -19 4
-23 -2 -4 -7 -11 -7 -18 -2 -7 5 -19 10 -27 10 -22 1 -58 10 -71 18 -7 4 -10
2 -8 -5z"/>
<path d="M1425 281 c-11 -5 -23 -7 -27 -5 -4 3 -10 -1 -14 -7 -8 -14 45 -3 61
12 11 11 7 11 -20 0z"/>
</g>
</svg>
