<?xml version="1.0" standalone="no"?>
<!DOCTYPE svg PUBLIC "-//W3C//DTD SVG 20010904//EN"
 "http://www.w3.org/TR/2001/REC-SVG-20010904/DTD/svg10.dtd">
<svg version="1.0" xmlns="http://www.w3.org/2000/svg"
 width="359.000000pt" height="359.000000pt" viewBox="0 0 359.000000 359.000000"
 preserveAspectRatio="xMidYMid meet">
<metadata>
Created by potrace 1.14, written by Peter Selinger 2001-2017
</metadata>
<g transform="translate(0.000000,359.000000) scale(0.100000,-0.100000)"
fill="#000000" stroke="none">
<path d="M1670 3373 c-19 -3 -40 -9 -46 -14 -6 -5 -38 -11 -71 -14 -32 -2 -73
-12 -91 -20 -18 -9 -47 -16 -65 -14 -33 2 -45 -1 -112 -31 -22 -9 -50 -21 -62
-24 -14 -4 -23 -15 -23 -27 0 -17 -3 -18 -20 -7 -14 9 -23 10 -28 3 -4 -5 -38
-26 -76 -45 -59 -30 -141 -84 -184 -120 -7 -6 -17 -8 -24 -4 -6 4 -8 3 -4 -4
3 -6 2 -13 -4 -17 -7 -4 -10 -277 -10 -811 l0 -804 948 2 947 3 0 270 0 270
-40 6 c-22 3 -34 7 -27 8 8 1 12 26 12 91 l0 90 -762 3 -763 2 790 2 790 3 2
437 c2 241 -1 443 -5 448 -16 23 -95 66 -112 62 -12 -3 -21 3 -28 18 -7 15
-57 45 -154 93 -173 85 -349 138 -428 127 -30 -4 -50 -3 -55 4 -7 13 -95 15
-95 3 0 -11 -58 -3 -66 9 -5 9 -67 10 -134 2z"/>
<path d="M850 1245 l0 -55 951 0 950 0 -3 53 -3 52 -947 3 -948 2 0 -55z"/>
<path d="M860 1080 c-16 -10 -25 -785 -9 -795 19 -12 118 -8 134 5 11 9 15 32
15 87 0 70 1 73 19 63 11 -5 22 -6 25 -1 3 5 22 16 41 25 l35 17 -2 297 -3
297 -51 1 -52 1 -1 -240 c-1 -133 -4 -243 -7 -246 -2 -2 -4 104 -4 237 0 182
-3 243 -12 249 -17 10 -112 13 -128 3z"/>
<path d="M1216 1077 c-16 -12 -18 -35 -17 -277 0 -225 2 -265 15 -272 9 -5 55
-7 103 -6 l88 3 5 264 c4 207 2 268 -8 282 -11 16 -26 19 -91 19 -47 0 -84 -5
-95 -13z"/>
<path d="M1477 778 c-4 -166 -7 -373 -7 -460 l0 -159 53 3 52 3 5 340 5 340
33 3 c17 2 33 2 34 0 1 -2 5 -131 8 -288 l5 -285 138 -3 c106 -2 137 0 137 10
0 7 1 154 2 325 3 297 4 313 23 332 18 18 36 21 173 23 201 4 192 13 192 -193
l0 -149 115 0 115 0 0 228 0 227 -538 2 -539 2 -6 -301z"/>
<path d="M2644 955 c-3 -6 -3 -109 -2 -230 l3 -220 50 1 50 1 0 224 0 224 -49
6 c-30 3 -50 1 -52 -6z"/>
<path d="M2003 913 c-10 -3 -13 -64 -13 -256 0 -139 4 -258 9 -266 12 -18 140
-18 152 1 5 7 9 83 10 168 2 259 -2 344 -14 352 -13 8 -125 9 -144 1z"/>
<path d="M2192 553 l3 -356 30 -2 c66 -5 63 -13 65 198 0 106 3 259 6 341 3
104 1 152 -7 162 -7 8 -30 14 -55 14 l-44 0 2 -357z"/>
</g>
</svg>
